<svg width="128" height="128" viewBox="0 0 128 128" xmlns="http://www.w3.org/2000/svg">
  <defs>
    <linearGradient id="grad1" x1="0%" y1="0%" x2="100%" y2="100%">
      <stop offset="0%" style="stop-color:#667eea;stop-opacity:1" />
      <stop offset="100%" style="stop-color:#764ba2;stop-opacity:1" />
    </linearGradient>
  </defs>
  
  <!-- Background circle -->
  <circle cx="64" cy="64" r="58" fill="url(#grad1)" stroke="#ffffff" stroke-width="4"/>
  
  <!-- Data table icon -->
  <rect x="25" y="35" width="78" height="58" rx="6" fill="none" stroke="white" stroke-width="3"/>
  
  <!-- Header row -->
  <line x1="25" y1="45" x2="103" y2="45" stroke="white" stroke-width="2"/>
  
  <!-- Vertical lines -->
  <line x1="45" y1="35" x2="45" y2="93" stroke="white" stroke-width="2"/>
  <line x1="65" y1="35" x2="65" y2="93" stroke="white" stroke-width="2"/>
  <line x1="83" y1="35" x2="83" y2="93" stroke="white" stroke-width="2"/>
  
  <!-- Horizontal lines -->
  <line x1="25" y1="60" x2="103" y2="60" stroke="white" stroke-width="1"/>
  <line x1="25" y1="75" x2="103" y2="75" stroke="white" stroke-width="1"/>
  
  <!-- Data dots -->
  <circle cx="35" cy="52" r="2" fill="white"/>
  <circle cx="55" cy="52" r="2" fill="white"/>
  <circle cx="74" cy="52" r="2" fill="white"/>
  <circle cx="93" cy="52" r="2" fill="white"/>
  
  <circle cx="35" cy="67" r="2" fill="white"/>
  <circle cx="55" cy="67" r="2" fill="white"/>
  <circle cx="74" cy="67" r="2" fill="white"/>
  <circle cx="93" cy="67" r="2" fill="white"/>
  
  <circle cx="35" cy="82" r="2" fill="white"/>
  <circle cx="55" cy="82" r="2" fill="white"/>
  <circle cx="74" cy="82" r="2" fill="white"/>
  <circle cx="93" cy="82" r="2" fill="white"/>
  
  <!-- Download arrow -->
  <path d="M 70 105 L 70 98 M 66 101 L 70 105 L 74 101" stroke="white" stroke-width="3" fill="none" stroke-linecap="round"/>
  
  <!-- Small CSV text -->
  <text x="64" y="115" text-anchor="middle" font-family="Arial, sans-serif" font-size="8" font-weight="bold" fill="white">CSV</text>
</svg> 